<?xml version="1.0" encoding="utf-8"?>
<!-- Generator: Adobe Illustrator 18.1.0, SVG Export Plug-In . SVG Version: 6.00 Build 0)  -->
<!DOCTYPE svg PUBLIC "-//W3C//DTD SVG 1.1//EN" "http://www.w3.org/Graphics/SVG/1.1/DTD/svg11.dtd">
<svg version="1.1" id="Layer_1" xmlns="http://www.w3.org/2000/svg" xmlns:xlink="http://www.w3.org/1999/xlink" x="0px" y="0px"
	 width="350px" height="31px" viewBox="317 484 350 31" enable-background="new 0 0 1000 1000" xml:space="preserve">
<g>
	<rect x="317.938" y="505.313" fill="#FFFFFF" width="0.719" height="6.376"/>
	<polygon fill="#FFFFFF" points="325.901,505.312 325.901,510.423 321.883,505.312 321.209,505.312 321.209,511.688 
		321.911,511.688 321.911,506.459 326.029,511.688 326.602,511.688 326.602,505.312 	"/>
	<g>
		<path fill="#FFFFFF" d="M331.379,508.154c1.421,0.31,2.077,0.829,2.077,1.812c0,1.103-0.911,1.814-2.177,1.814
			c-1.011,0-1.84-0.337-2.606-1.02l0.447-0.528c0.665,0.6,1.302,0.901,2.186,0.901c0.856,0,1.421-0.446,1.421-1.094
			c0-0.601-0.318-0.938-1.658-1.22c-1.467-0.319-2.141-0.793-2.141-1.849c0-1.02,0.884-1.75,2.096-1.75
			c0.929,0,1.594,0.265,2.241,0.784l-0.419,0.555c-0.592-0.482-1.185-0.692-1.841-0.692c-0.829,0-1.357,0.456-1.357,1.039
			C329.648,507.516,329.976,507.853,331.379,508.154"/>
	</g>
	<polygon fill="#FFFFFF" points="335.015,505.312 335.015,505.976 337.156,505.976 337.156,511.688 337.885,511.688 
		337.885,505.976 340.025,505.976 340.025,505.312 	"/>
	<path fill="#FFFFFF" d="M344.748,505.977h-1.969v2.587h1.959c0.957,0,1.64-0.491,1.64-1.32
		C346.378,506.45,345.777,505.977,344.748,505.977 M346.451,511.689l-1.85-2.478h-1.822v2.478h-0.719v-6.377h2.742
		c1.403,0,2.305,0.756,2.305,1.904c0,1.066-0.729,1.685-1.731,1.867l1.959,2.606L346.451,511.689L346.451,511.689z"/>
	<path fill="#FFFFFF" d="M354.543,508.965c0,1.859-1.066,2.824-2.66,2.824c-1.576,0-2.651-0.965-2.651-2.769v-3.708h0.72v3.663
		c0,1.375,0.728,2.149,1.949,2.149c1.175,0,1.923-0.71,1.923-2.104v-3.708h0.719V508.965z"/>
	<path fill="#FFFFFF" d="M359.848,511.799c-1.841,0-3.198-1.448-3.198-3.289c0-1.822,1.348-3.307,3.225-3.307
		c1.157,0,1.849,0.41,2.487,1.011l-0.492,0.529c-0.538-0.51-1.138-0.876-2.004-0.876c-1.412,0-2.469,1.14-2.469,2.625
		s1.066,2.641,2.469,2.641c0.875,0,1.449-0.336,2.059-0.919l0.474,0.464C361.734,511.352,361.005,511.799,359.848,511.799"/>
	<polygon fill="#FFFFFF" points="363.886,505.312 363.886,505.976 366.027,505.976 366.027,511.688 366.756,511.688 
		366.756,505.976 368.896,505.976 368.896,505.312 	"/>
	<rect x="370.995" y="505.313" fill="#FFFFFF" width="0.719" height="6.376"/>
	<g>
		<path fill="#FFFFFF" d="M377.228,505.867c-1.457,0-2.496,1.167-2.496,2.625c0,1.457,1.056,2.641,2.514,2.641
			s2.496-1.166,2.496-2.623C379.742,507.052,378.685,505.867,377.228,505.867 M377.228,511.799c-1.94,0-3.244-1.522-3.244-3.289
			s1.321-3.307,3.262-3.307s3.243,1.521,3.243,3.289C380.489,510.259,379.168,511.799,377.228,511.799"/>
	</g>
	<polygon fill="#FFFFFF" points="387.389,505.312 387.389,510.423 383.371,505.312 382.696,505.312 382.696,511.688 
		383.397,511.688 383.397,506.459 387.516,511.688 388.089,511.688 388.089,505.312 	"/>
	<path fill="#FFFFFF" d="M393.267,506.104l1.448,3.252h-2.905L393.267,506.104z M392.939,505.266l-2.907,6.422h0.739l0.756-1.685
		h3.47l0.747,1.685h0.775l-2.906-6.422H392.939z"/>
	<polygon fill="#FFFFFF" points="398.463,505.312 398.463,511.688 402.772,511.688 402.772,511.024 399.182,511.024 
		399.182,505.312 	"/>
	<path fill="#FFFFFF" d="M410.537,505.976h-1.612v2.806h1.576c1.056,0,1.749-0.565,1.749-1.412
		C412.25,506.45,411.567,505.976,410.537,505.976 M410.474,509.438h-1.549v2.251h-0.72v-6.378h2.387
		c1.439,0,2.387,0.766,2.387,2.032C412.979,508.728,411.831,509.438,410.474,509.438"/>
	<path fill="#FFFFFF" d="M417.664,505.977h-1.968v2.587h1.958c0.957,0,1.641-0.491,1.641-1.32
		C419.295,506.45,418.694,505.977,417.664,505.977 M419.367,511.689l-1.849-2.478h-1.822v2.478h-0.72v-6.377h2.743
		c1.402,0,2.304,0.756,2.304,1.904c0,1.066-0.728,1.685-1.731,1.867l1.959,2.606L419.367,511.689L419.367,511.689z"/>
	<path fill="#FFFFFF" d="M424.936,506.104l1.448,3.252h-2.907L424.936,506.104z M424.608,505.266l-2.905,6.422h0.738l0.756-1.685
		h3.471l0.747,1.685h0.774l-2.906-6.422H424.608z"/>
	<g>
		<path fill="#FFFFFF" d="M432.673,511.799c-1.84,0-3.198-1.448-3.198-3.289c0-1.822,1.349-3.307,3.225-3.307
			c1.157,0,1.85,0.41,2.488,1.011l-0.493,0.529c-0.537-0.51-1.138-0.876-2.004-0.876c-1.412,0-2.468,1.14-2.468,2.625
			s1.065,2.641,2.468,2.641c0.874,0,1.449-0.336,2.059-0.919l0.474,0.464C434.558,511.352,433.829,511.799,432.673,511.799"/>
	</g>
	<polygon fill="#FFFFFF" points="436.713,505.312 436.713,505.976 438.854,505.976 438.854,511.688 439.582,511.688 
		439.582,505.976 441.723,505.976 441.723,505.312 	"/>
	<rect x="443.82" y="505.313" fill="#FFFFFF" width="0.721" height="6.376"/>
	<g>
		<path fill="#FFFFFF" d="M450.007,511.799c-1.841,0-3.198-1.448-3.198-3.289c0-1.822,1.349-3.307,3.225-3.307
			c1.157,0,1.85,0.41,2.488,1.011l-0.493,0.529c-0.537-0.51-1.138-0.876-2.004-0.876c-1.412,0-2.468,1.14-2.468,2.625
			s1.065,2.641,2.468,2.641c0.874,0,1.449-0.336,2.059-0.919l0.474,0.464C451.892,511.352,451.163,511.799,450.007,511.799"/>
	</g>
	<polygon fill="#FFFFFF" points="454.501,505.312 454.501,511.688 459.156,511.688 459.156,511.032 455.22,511.032 455.22,508.8 
		458.7,508.8 458.7,508.145 455.22,508.145 455.22,505.968 459.111,505.968 459.111,505.312 	"/>
	<path fill="#FFFFFF" d="M467.669,511.799c-2.004,0-3.243-1.458-3.243-3.289c0-1.759,1.284-3.307,3.198-3.307
		c1.075,0,1.739,0.31,2.377,0.847l-0.464,0.547c-0.491-0.429-1.039-0.73-1.941-0.73c-1.412,0-2.423,1.195-2.423,2.625
		c0,1.53,0.974,2.66,2.524,2.66c0.729,0,1.402-0.283,1.84-0.637v-1.586h-1.941v-0.647h2.633v2.542
		C469.637,511.352,468.745,511.799,467.669,511.799"/>
	<path fill="#FFFFFF" d="M477.748,508.965c0,1.859-1.066,2.824-2.66,2.824c-1.576,0-2.651-0.965-2.651-2.769v-3.708h0.72v3.663
		c0,1.375,0.729,2.149,1.95,2.149c1.174,0,1.922-0.71,1.922-2.104v-3.708h0.719V508.965z"/>
	<rect x="480.201" y="505.313" fill="#FFFFFF" width="0.721" height="6.376"/>
	<g>
		<path fill="#FFFFFF" d="M485.687,505.977h-1.495v5.047h1.495c1.612,0,2.642-1.093,2.642-2.514
			C488.329,507.088,487.299,505.977,485.687,505.977 M485.687,511.689h-2.214v-6.377h2.214c2.004,0,3.389,1.375,3.389,3.179
			C489.076,510.295,487.691,511.689,485.687,511.689"/>
	</g>
	<polygon fill="#FFFFFF" points="491.283,505.312 491.283,511.688 495.938,511.688 495.938,511.032 492.002,511.032 492.002,508.8 
		495.482,508.8 495.482,508.145 492.002,508.145 492.002,505.968 495.893,505.968 495.893,505.312 	"/>
	<g>
		<path fill="#FFFFFF" d="M326.423,498.693c-0.094-0.235-0.833-1.935-0.96-2.218h-4.373c-0.093,0.188-0.865,1.983-0.958,2.218
			h-2.061c0.125-0.282,4.419-10.382,4.498-10.554h1.4c0.063,0.157,4.373,10.161,4.547,10.554H326.423z M323.262,491.269
			c-0.174,0.393-1.354,3.082-1.463,3.366h2.925C324.63,494.43,323.403,491.631,323.262,491.269"/>
	</g>
	<polygon fill="#FFFFFF" points="350.636,488.202 350.636,492.527 345.87,492.527 345.87,488.202 343.966,488.202 343.966,498.694 
		345.87,498.694 345.87,494.399 350.636,494.399 350.636,498.694 352.554,498.694 352.554,488.202 	"/>
	<rect x="357.148" y="488.201" fill="#FFFFFF" width="1.919" height="10.492"/>
	<polygon fill="#FFFFFF" points="363.613,488.202 363.613,498.694 371.652,498.694 371.652,496.854 365.501,496.854 
		365.501,494.321 370.456,494.321 370.456,492.481 365.501,492.481 365.501,490.042 371.699,490.042 371.699,488.202 	"/>
	<g>
		<path fill="#FFFFFF" d="M380.46,498.819h-1.369c-0.173-0.504-3.979-10.02-4.216-10.618h2.062c0.188,0.503,2.674,6.952,2.879,7.488
			c0.204-0.551,2.689-7,2.846-7.488h2.029C384.503,488.689,380.634,498.395,380.46,498.819"/>
	</g>
	<polygon fill="#FFFFFF" points="388.091,488.202 388.091,498.694 396.128,498.694 396.128,496.854 389.977,496.854 
		389.977,494.321 394.933,494.321 394.933,492.481 389.977,492.481 389.977,490.042 396.176,490.042 396.176,488.202 	"/>
	<polygon fill="#FFFFFF" points="405.726,488.202 405.726,490.042 408.777,490.042 408.777,498.694 410.712,498.694 
		410.712,490.042 413.669,490.042 413.669,488.202 	"/>
	<polygon fill="#FFFFFF" points="423.815,488.202 423.815,492.527 419.049,492.527 419.049,488.202 417.145,488.202 
		417.145,498.694 419.049,498.694 419.049,494.399 423.815,494.399 423.815,498.694 425.734,498.694 425.734,488.202 	"/>
	<polygon fill="#FFFFFF" points="430.203,488.202 430.203,498.694 438.241,498.694 438.241,496.854 432.089,496.854 
		432.089,494.321 437.046,494.321 437.046,492.481 432.089,492.481 432.089,490.042 438.288,490.042 438.288,488.202 	"/>
	<path fill="#FFFFFF" d="M453.815,487.95c1.761,0,3.13,0.818,3.996,1.746c-0.142,0.142-1.149,1.18-1.354,1.369
		c-0.566-0.614-1.415-1.227-2.642-1.227c-1.935,0-3.539,1.604-3.539,3.617c0,1.966,1.588,3.602,3.539,3.602
		c1.07,0,2.013-0.518,2.659-1.257c0.172,0.172,1.18,1.179,1.337,1.337c-0.85,0.912-2.25,1.808-3.996,1.808
		c-2.989,0-5.521-2.375-5.521-5.49C448.294,490.357,450.795,487.95,453.815,487.95"/>
	<path fill="#FFFFFF" d="M465.975,498.945c-3.051,0-5.505-2.454-5.505-5.49c0-3.051,2.454-5.505,5.49-5.505
		c3.051,0,5.505,2.454,5.505,5.505C471.465,496.491,469.011,498.945,465.975,498.945 M465.96,489.806
		c-1.966,0-3.524,1.621-3.524,3.649c0,2.03,1.558,3.634,3.539,3.634c1.983,0,3.54-1.604,3.54-3.634
		C469.515,491.427,467.941,489.806,465.96,489.806"/>
	<path fill="#FFFFFF" d="M481.754,498.693c-0.205-0.33-2.061-3.413-2.297-3.806h-2.548v3.806h-1.888v-10.492h5.538
		c1.918,0,3.334,1.479,3.334,3.367c0,1.557-1.101,2.783-2.281,3.082c0.221,0.347,2.265,3.697,2.501,4.043H481.754z M480.354,490.042
		h-3.445v3.021h3.46c0.928,0,1.558-0.661,1.558-1.495S481.297,490.042,480.354,490.042"/>
	<polygon fill="#FFFFFF" points="487.842,488.202 487.842,498.694 495.881,498.694 495.881,496.854 489.73,496.854 489.73,494.321 
		494.686,494.321 494.686,492.481 489.73,492.481 489.73,490.042 495.927,490.042 495.927,488.202 	"/>
	<path fill="#FFFFFF" d="M336.414,487.95c1.762,0,3.13,0.818,3.996,1.746c-0.142,0.142-1.149,1.18-1.353,1.369
		c-0.566-0.614-1.416-1.227-2.643-1.227c-1.935,0-3.539,1.604-3.539,3.617c0,1.966,1.588,3.602,3.539,3.602
		c1.07,0,2.013-0.518,2.659-1.257c0.172,0.172,1.18,1.179,1.337,1.337c-0.85,0.912-2.25,1.808-3.996,1.808
		c-2.989,0-5.521-2.375-5.521-5.49C330.893,490.357,333.394,487.95,336.414,487.95"/>
</g>
<g>
	<path fill="#FFFFFF" d="M547.823,507.322c-4.444,0-7.723-3.498-7.723-7.942c0-4.401,3.257-7.987,7.789-7.987
		c2.794,0,4.467,0.99,6.007,2.442l-1.188,1.276c-1.298-1.232-2.75-2.112-4.841-2.112c-3.41,0-5.963,2.75-5.963,6.337
		c0,3.586,2.575,6.381,5.963,6.381c2.112,0,3.499-0.814,4.973-2.223l1.145,1.122C552.378,506.244,550.618,507.322,547.823,507.322z"
		/>
	<path fill="#FFFFFF" d="M564.72,507.322c-4.688,0-7.834-3.674-7.834-7.942s3.19-7.987,7.878-7.987c4.687,0,7.833,3.674,7.833,7.943
		C572.597,503.604,569.406,507.322,564.72,507.322z M564.72,492.999c-3.521,0-6.029,2.816-6.029,6.337s2.553,6.381,6.073,6.381
		s6.028-2.816,6.028-6.337S568.24,492.999,564.72,492.999z"/>
	<path fill="#FFFFFF" d="M591.164,507.059h-1.87l-1.804-4.07h-8.384l-1.826,4.07h-1.782l7.019-15.513h1.629L591.164,507.059z
		 M583.31,493.57l-3.521,7.855h7.019L583.31,493.57z"/>
	<path fill="#FFFFFF" d="M601.789,507.322c-4.444,0-7.724-3.498-7.724-7.942c0-4.401,3.257-7.987,7.789-7.987
		c2.795,0,4.467,0.99,6.007,2.442l-1.188,1.276c-1.299-1.232-2.751-2.112-4.841-2.112c-3.41,0-5.963,2.75-5.963,6.337
		c0,3.586,2.574,6.381,5.963,6.381c2.112,0,3.498-0.814,4.973-2.223l1.145,1.122C606.344,506.244,604.583,507.322,601.789,507.322z"
		/>
	<path fill="#FFFFFF" d="M613.272,500.128v6.931h-1.738v-15.402h1.738v6.843h8.889v-6.843h1.738v15.402h-1.738v-6.931H613.272z"/>
	<path fill="#FFFFFF" d="M630.696,491.656v15.402h-1.738v-15.402H630.696z"/>
	<path fill="#FFFFFF" d="M647.087,491.656h1.694v15.402h-1.387l-9.945-12.63v12.63h-1.694v-15.402h1.629L647.087,504V491.656z"/>
	<path fill="#FFFFFF" d="M660.837,507.322c-4.841,0-7.834-3.521-7.834-7.942c0-4.247,3.103-7.987,7.724-7.987
		c2.597,0,4.202,0.748,5.743,2.046l-1.123,1.32c-1.188-1.034-2.508-1.76-4.687-1.76c-3.41,0-5.853,2.882-5.853,6.337
		c0,3.696,2.354,6.425,6.095,6.425c1.761,0,3.389-0.683,4.444-1.541v-3.828h-4.687v-1.562h6.359v6.14
		C665.589,506.244,663.433,507.322,660.837,507.322z"/>
</g>
<g>
	<g>
		<rect id="SVGID_1_" x="516.938" y="484.799" fill="#FFFFFF" width="1" height="30"/>
	</g>
	<g>
		<defs>
			<rect id="SVGID_2_" x="516.938" y="484.799" width="1" height="30"/>
		</defs>
		<use xlink:href="#SVGID_2_"  overflow="visible" fill="#FFFFFF"/>
		<clipPath id="SVGID_3_">
			<use xlink:href="#SVGID_2_"  overflow="visible"/>
		</clipPath>
		<line clip-path="url(#SVGID_3_)" fill="#FFFFFF" x1="517.438" y1="484.799" x2="517.438" y2="514.799"/>
	</g>
</g>
</svg>
